<svg xmlns="http://www.w3.org/2000/svg" viewBox="0 0 1200 680" font-family="system-ui, -apple-system, sans-serif">
  <defs>
    <marker id="arr" viewBox="0 0 10 10" refX="9" refY="5" markerWidth="6" markerHeight="6" orient="auto">
      <path d="M 0 0 L 10 5 L 0 10 z" fill="#9ca3af"/>
    </marker>
  </defs>

  <!-- Card -->
  <rect x="10" y="10" width="1180" height="660" rx="14" fill="white" stroke="#e5e7eb" stroke-width="1.5"/>

  <!-- Header -->
  <text x="34" y="46" font-size="13" fill="#6b7280" font-family="monospace" letter-spacing="2" font-weight="600">ARCHITECTURE</text>
  <rect x="1080" y="28" width="100" height="28" rx="14" fill="#f3f4f6" stroke="#e5e7eb" stroke-width="1"/>
  <text x="1130" y="46" font-size="11" fill="#4b5563" text-anchor="middle">MSA 구조도</text>
  <text x="1166" y="84" font-size="10" fill="#9ca3af" font-family="monospace" letter-spacing="1.5" text-anchor="end">DOCKER · MSA</text>

  <!-- FRONTEND -->
  <text x="34" y="130" font-size="11" fill="#0891b2" font-family="monospace" letter-spacing="1">FRONTEND</text>
  <rect x="403" y="100" width="240" height="52" rx="8" fill="white" stroke="#e5e7eb" stroke-width="1.5"/>
  <text x="523" y="130" font-size="13" fill="#111827" text-anchor="middle" font-weight="600" font-family="monospace">NGINX front</text>
  <rect x="663" y="100" width="270" height="52" rx="8" fill="white" stroke="#e5e7eb" stroke-width="1.5"/>
  <text x="798" y="130" font-size="13" fill="#111827" text-anchor="middle" font-weight="600" font-family="monospace">Next.js wordpressClient</text>

  <line x1="668" y1="152" x2="668" y2="175" stroke="#9ca3af" stroke-width="1.5" marker-end="url(#arr)"/>

  <!-- APPLICATION -->
  <text x="34" y="212" font-size="11" fill="#0891b2" font-family="monospace" letter-spacing="1">APPLICATION</text>

  <rect x="170" y="180" width="134" height="56" rx="8" fill="white" stroke="#e5e7eb" stroke-width="1.5"/>
  <text x="237" y="212" font-size="12" fill="#111827" text-anchor="middle" font-weight="600" font-family="monospace">adm</text>

  <rect x="313" y="180" width="134" height="56" rx="8" fill="white" stroke="#e5e7eb" stroke-width="1.5"/>
  <text x="380" y="212" font-size="12" fill="#111827" text-anchor="middle" font-weight="600" font-family="monospace">serv</text>

  <rect x="456" y="180" width="134" height="56" rx="8" fill="white" stroke="#e5e7eb" stroke-width="1.5"/>
  <text x="523" y="212" font-size="12" fill="#111827" text-anchor="middle" font-weight="600" font-family="monospace">openapi</text>

  <rect x="599" y="180" width="134" height="56" rx="8" fill="white" stroke="#e5e7eb" stroke-width="1.5"/>
  <text x="666" y="212" font-size="12" fill="#111827" text-anchor="middle" font-weight="600" font-family="monospace">user</text>

  <rect x="742" y="180" width="134" height="56" rx="8" fill="white" stroke="#e5e7eb" stroke-width="1.5"/>
  <text x="809" y="212" font-size="12" fill="#111827" text-anchor="middle" font-weight="600" font-family="monospace">competition</text>

  <rect x="885" y="180" width="134" height="56" rx="8" fill="white" stroke="#e5e7eb" stroke-width="1.5"/>
  <text x="952" y="212" font-size="12" fill="#111827" text-anchor="middle" font-weight="600" font-family="monospace">kafe</text>

  <rect x="1028" y="180" width="134" height="56" rx="8" fill="white" stroke="#e5e7eb" stroke-width="1.5"/>
  <text x="1095" y="212" font-size="12" fill="#111827" text-anchor="middle" font-weight="600" font-family="monospace">Wordpress</text>

  <line x1="668" y1="236" x2="668" y2="259" stroke="#9ca3af" stroke-width="1.5" marker-end="url(#arr)"/>

  <!-- INFRA / PLATFORM -->
  <text x="34" y="296" font-size="11" fill="#0891b2" font-family="monospace" letter-spacing="1">INFRA · PLATFORM</text>

  <rect x="170" y="264" width="238" height="56" rx="8" fill="white" stroke="#e5e7eb" stroke-width="1.5"/>
  <text x="289" y="288" font-size="13" fill="#111827" text-anchor="middle" font-weight="600" font-family="monospace">Solr</text>
  <text x="289" y="306" font-size="10" fill="#9ca3af" text-anchor="middle">search</text>

  <rect x="422" y="264" width="238" height="56" rx="8" fill="white" stroke="#e5e7eb" stroke-width="1.5"/>
  <text x="541" y="288" font-size="13" fill="#111827" text-anchor="middle" font-weight="600" font-family="monospace">davrods</text>
  <text x="541" y="306" font-size="10" fill="#9ca3af" text-anchor="middle">WebDAV → iRODS</text>

  <rect x="674" y="264" width="238" height="56" rx="8" fill="white" stroke="#e5e7eb" stroke-width="1.5"/>
  <text x="793" y="288" font-size="13" fill="#111827" text-anchor="middle" font-weight="600" font-family="monospace">davrods-ticket</text>
  <text x="793" y="306" font-size="10" fill="#9ca3af" text-anchor="middle">티켓 발급</text>

  <rect x="926" y="264" width="240" height="56" rx="8" fill="white" stroke="#e5e7eb" stroke-width="1.5"/>
  <text x="1046" y="288" font-size="13" fill="#111827" text-anchor="middle" font-weight="600" font-family="monospace">sftp</text>
  <text x="1046" y="306" font-size="10" fill="#9ca3af" text-anchor="middle">iRODS Jargon</text>

  <line x1="668" y1="320" x2="668" y2="343" stroke="#9ca3af" stroke-width="1.5" marker-end="url(#arr)"/>

  <!-- DATABASE -->
  <text x="34" y="380" font-size="11" fill="#0891b2" font-family="monospace" letter-spacing="1">DATABASE</text>

  <rect x="356" y="348" width="300" height="56" rx="8" fill="white" stroke="#e5e7eb" stroke-width="1.5"/>
  <text x="506" y="372" font-size="13" fill="#111827" text-anchor="middle" font-weight="600" font-family="monospace">Postgres</text>
  <text x="506" y="390" font-size="10" fill="#9ca3af" text-anchor="middle">repo-db</text>

  <rect x="680" y="348" width="300" height="56" rx="8" fill="white" stroke="#e5e7eb" stroke-width="1.5"/>
  <text x="830" y="372" font-size="13" fill="#111827" text-anchor="middle" font-weight="600" font-family="monospace">Redis</text>
  <text x="830" y="390" font-size="10" fill="#9ca3af" text-anchor="middle">session-db</text>

  <line x1="668" y1="404" x2="668" y2="427" stroke="#9ca3af" stroke-width="1.5" marker-end="url(#arr)"/>

  <!-- EXTERNAL STORAGE -->
  <text x="34" y="470" font-size="11" fill="#0891b2" font-family="monospace" letter-spacing="1">EXTERNAL STORAGE</text>

  <rect x="370" y="432" width="596" height="70" rx="8" fill="#eef2ff" stroke="#c7d2fe" stroke-width="1.5"/>
  <text x="668" y="462" font-size="14" fill="#4338ca" text-anchor="middle" font-weight="700" font-family="monospace">iRODS Cluster</text>
  <text x="668" y="481" font-size="11" fill="#6366f1" text-anchor="middle">3 servers · 6,000 GB+ · 2,000,000+ items</text>

  <line x1="668" y1="502" x2="668" y2="525" stroke="#9ca3af" stroke-width="1.5" marker-end="url(#arr)"/>

  <!-- MONITORING -->
  <text x="34" y="562" font-size="11" fill="#0891b2" font-family="monospace" letter-spacing="1">MONITORING</text>

  <rect x="356" y="530" width="300" height="56" rx="8" fill="white" stroke="#e5e7eb" stroke-width="1.5"/>
  <text x="506" y="554" font-size="13" fill="#111827" text-anchor="middle" font-weight="600" font-family="monospace">Prometheus</text>
  <text x="506" y="572" font-size="10" fill="#9ca3af" text-anchor="middle">metrics scrape</text>

  <rect x="680" y="530" width="300" height="56" rx="8" fill="white" stroke="#e5e7eb" stroke-width="1.5"/>
  <text x="830" y="554" font-size="13" fill="#111827" text-anchor="middle" font-weight="600" font-family="monospace">Grafana</text>
  <text x="830" y="572" font-size="10" fill="#9ca3af" text-anchor="middle">dashboards · alerts</text>

  <!-- Feedback loop: actuator -> scrape -->
  <path d="M 1162 208 L 1186 208 L 1186 558 L 986 558" fill="none" stroke="#9ca3af" stroke-width="1.5" stroke-dasharray="4 4" marker-end="url(#arr)"/>
  <text x="1192" y="386" font-size="10" fill="#9ca3af" font-family="monospace">actuator → scrape</text>
</svg>
